<svg width="20" height="21" viewBox="0 0 20 21" fill="none" xmlns="http://www.w3.org/2000/svg">
<path d="M13.617 2.1665H6.39199C3.56699 2.1665 1.66699 4.14984 1.66699 7.09984V13.9082C1.66699 16.8498 3.56699 18.8332 6.39199 18.8332H13.617C16.442 18.8332 18.3337 16.8498 18.3337 13.9082V7.09984C18.3337 4.14984 16.442 2.1665 13.617 2.1665Z" fill="white"/>
<path fill-rule="evenodd" clip-rule="evenodd" d="M9.27148 7.32441C9.27148 7.72608 9.59731 8.05358 9.99648 8.05358C10.4073 8.05358 10.734 7.72608 10.734 7.32441C10.734 6.92275 10.4073 6.59525 10.0048 6.59525C9.60065 6.59525 9.27148 6.92275 9.27148 7.32441ZM10.7249 9.96841C10.7249 9.56674 10.3974 9.23924 9.99577 9.23924C9.5941 9.23924 9.2666 9.56674 9.2666 9.96841V13.6517C9.2666 14.0534 9.5941 14.3809 9.99577 14.3809C10.3974 14.3809 10.7249 14.0534 10.7249 13.6517V9.96841Z" fill="#494F68"/>
</svg>
