<svg width="16" height="17" viewBox="0 0 16 17" fill="none" xmlns="http://www.w3.org/2000/svg">
<path d="M5.61994 15.8184V13.2627C5.61993 12.6151 6.14655 12.0889 6.79886 12.0848H9.19401C9.84923 12.0848 10.3804 12.6122 10.3804 13.2627V15.811C10.3804 16.3727 10.8368 16.8292 11.4026 16.8333H13.0367C13.7999 16.8353 14.5325 16.5357 15.0728 16.0006C15.6132 15.4655 15.9168 14.739 15.9168 13.9813V6.72153C15.9168 6.10948 15.6436 5.52892 15.1707 5.13624L9.61931 0.728547C8.64892 -0.0424081 7.26297 -0.0175033 6.32132 0.78781L0.88934 5.13624C0.394113 5.51734 0.098123 6.09963 0.0834961 6.72153V13.9739C0.0834961 15.5531 1.37298 16.8333 2.96364 16.8333H4.5604C4.83281 16.8353 5.09474 16.7292 5.28806 16.5387C5.48138 16.3481 5.5901 16.0889 5.59009 15.8184H5.61994Z" fill="#494F68"/>
</svg>
